<svg xmlns="http://www.w3.org/2000/svg" viewBox="0 0 265.5 234.89"><defs><style>.cls-1,.cls-3{fill:none;stroke-miterlimit:10;stroke-width:5px;}.cls-1{stroke:#000;}.cls-2{fill:#231f20;}.cls-3{stroke:#231f20;}</style></defs><g id="Layer_2" data-name="Layer 2"><g id="Layer_2-2" data-name="Layer 2"><path class="cls-1" d="M175.43,142.31c.63,1.9,1.58,4.68,2.3,6.54a62.71,62.71,0,0,1,4.15,22.46c0,33.51-26.76,61.08-59.29,61.08s-59.28-27.57-59.28-61.08a62.7,62.7,0,0,1,2.85-18.71c.36-1.14.72-2.28,1-3.44,1.19-4.13,6.52-19.5,27.6-55C120.11,51.44,122.59,16,122.59,16s.14,38.87,24.81,73.92C166.87,117.55,173.11,135.34,175.43,142.31Z"/><polygon class="cls-2" points="129.82 136.84 106.94 174.23 119.12 174.23 114.16 203.75 137.73 166.54 125.82 166.04 129.82 136.84"/><path class="cls-3" d="M112.76,198.09a28.87,28.87,0,0,1,9.35-56.18c.56,0,1.12,0,1.67,0"/><path class="cls-3" d="M131.39,143.43a28.87,28.87,0,0,1-9.28,56.21c-.69,0-1.39,0-2.07-.07"/><path class="cls-1" d="M259.38,169c.35,1.06.88,2.62,1.28,3.67A35,35,0,0,1,263,185.24c0,18.84-15,34.33-33.32,34.33s-33.32-15.49-33.32-34.33a35.25,35.25,0,0,1,1.6-10.51c.2-.64.41-1.29.6-1.93.66-2.33,3.66-11,15.51-30.94,14.22-24,15.61-43.92,15.61-43.92s.07,21.85,13.94,41.55C254.57,155,258.07,165,259.38,169Z"/><polygon class="cls-2" points="233.74 165.87 220.88 186.88 227.73 186.88 224.94 203.47 238.19 182.56 231.49 182.28 233.74 165.87"/><path class="cls-3" d="M224.15,200.29a16.22,16.22,0,0,1,5.26-31.57l.94,0"/><path class="cls-3" d="M234.62,169.57a16.23,16.23,0,0,1-5.21,31.6c-.39,0-.78,0-1.17,0"/><path class="cls-1" d="M65.51,71.18c.36,1.06.89,2.63,1.29,3.67a35.31,35.31,0,0,1,2.34,12.63c0,18.83-15,34.32-33.32,34.32S2.5,106.31,2.5,87.48A35.36,35.36,0,0,1,4.1,77c.2-.64.41-1.28.59-1.93.67-2.32,3.67-11,15.52-30.94C34.42,20.11,35.82.17,35.82.17S35.89,22,49.76,41.72C60.7,57.26,64.21,67.26,65.51,71.18Z"/><polygon class="cls-2" points="39.88 68.1 27.02 89.12 33.87 89.12 31.08 105.71 44.32 84.8 37.63 84.52 39.88 68.1"/><path class="cls-3" d="M30.29,102.53A16.23,16.23,0,0,1,35.55,71q.47,0,.93,0"/><path class="cls-3" d="M40.76,71.81a16.23,16.23,0,0,1-5.21,31.59c-.39,0-.78,0-1.17,0"/></g></g></svg>