<svg xmlns="http://www.w3.org/2000/svg" viewBox="0 0 206.2 271.07"><defs><style>.cls-1{fill:none;stroke:#231f20;stroke-miterlimit:10;stroke-width:5px;}.cls-2{fill:#231f20;}</style></defs><g id="Layer_2" data-name="Layer 2"><g id="Layer_2-2" data-name="Layer 2"><polygon class="cls-1" points="3.28 224.23 30.3 125.76 175.53 125.76 202.29 224.23 3.28 224.23"/><line class="cls-1" x1="52.98" y1="224.23" x2="66.93" y2="125.76"/><line class="cls-1" x1="101.97" y1="224.23" x2="102.78" y2="125.76"/><line class="cls-1" x1="150.98" y1="224.23" x2="138.02" y2="125.76"/><line class="cls-1" x1="23.06" y1="152.15" x2="182.7" y2="152.15"/><line class="cls-1" x1="14.08" y1="184.87" x2="191.59" y2="184.87"/><path class="cls-2" d="M82.17,224.63l8.77,34.88H57.15a8,8,0,0,0-5,1.65,4.33,4.33,0,0,0-1.09,6.22,7.93,7.93,0,0,0,6.81,3.69H146.4a7.94,7.94,0,0,0,5.89-2.48,4.44,4.44,0,0,0,.35-6.16,8.41,8.41,0,0,0-6.9-3.35l-33,.24,8.7-34.69Z"/><circle class="cls-2" cx="154.52" cy="51.57" r="29.2"/><path class="cls-2" d="M173.07,12.33c-2.16,4-4.68,7-1.06,8.76,3.21,1.58,4.62-1.66,6.79-5.64s5-7.29,1.08-8.9C176.32,5.07,175.24,8.36,173.07,12.33Z"/><path class="cls-2" d="M151.07,8.37c0,4.53-.77,8.37,3.26,8.2,3.58-.15,3.26-3.67,3.26-8.2s.88-8.78-3.31-8.34C150.44.44,151.07,3.84,151.07,8.37Z"/><path class="cls-2" d="M153.27,93.87c0,4.52-.78,8.36,3.26,8.19,3.57-.15,3.26-3.67,3.26-8.19s.88-8.79-3.32-8.34C152.64,85.94,153.27,89.34,153.27,93.87Z"/><path class="cls-2" d="M129.86,16c2.25,3.93,3.48,7.65,6.9,5.5,3-1.9,1-4.8-1.24-8.73s-3.59-8.07-7-5.6C125.38,9.45,127.62,12.09,129.86,16Z"/><path class="cls-2" d="M175.3,91c2.25,3.93,3.48,7.65,6.9,5.5,3-1.9,1-4.8-1.24-8.73s-3.59-8.07-7-5.6C170.82,84.41,173.06,87.05,175.3,91Z"/><path class="cls-2" d="M115.18,32.87c4,2,7.14,4.43,8.79.74,1.47-3.27-1.82-4.55-5.88-6.58s-7.46-4.71-8.93-.75C107.81,29.89,111.13,30.85,115.18,32.87Z"/><path class="cls-2" d="M191.21,76.51c4,2,7.14,4.43,8.79.75,1.46-3.27-1.83-4.56-5.88-6.58s-7.47-4.71-8.94-.76C183.83,73.53,187.16,74.49,191.21,76.51Z"/><path class="cls-2" d="M129.48,87c-2.17,4-4.68,7-1.06,8.75,3.21,1.58,4.62-1.66,6.79-5.63s5-7.29,1.08-8.91C132.73,79.68,131.65,83,129.48,87Z"/><path class="cls-2" d="M189.65,26.7c-3.88,2.33-7.57,3.64-5.34,7,2,3,4.82.91,8.7-1.43s8-3.77,5.44-7.13C196.12,22.07,193.53,24.36,189.65,26.7Z"/><path class="cls-2" d="M114.8,70.29c-3.88,2.33-7.57,3.65-5.35,7,2,3,4.83.91,8.71-1.43s8-3.77,5.44-7.13C121.27,65.66,118.68,68,114.8,70.29Z"/><path class="cls-2" d="M197.83,47.67c-4.53,0-8.37-.77-8.2,3.26.15,3.58,3.67,3.26,8.2,3.26s8.78.88,8.34-3.31C205.76,47,202.36,47.67,197.83,47.67Z"/><path class="cls-2" d="M111,48.13c-4.53,0-8.37-.77-8.2,3.26.15,3.58,3.67,3.26,8.2,3.26s8.78.88,8.34-3.31C118.92,47.5,115.52,48.13,111,48.13Z"/></g></g></svg>