<svg xmlns="http://www.w3.org/2000/svg" viewBox="0 0 240.61 242.98"><defs><style>.cls-1{fill:none;stroke:#231f20;stroke-miterlimit:10;stroke-width:5px;}.cls-2{fill:#231f20;}</style></defs><g id="Layer_2" data-name="Layer 2"><g id="Layer_2-2" data-name="Layer 2"><circle class="cls-1" cx="115.77" cy="89.59" r="15.41"/><path class="cls-1" d="M129,97.45l73.57,5.12a3.79,3.79,0,0,0,1.73-.26,1.49,1.49,0,0,0,1.08-1.77,2,2,0,0,0-1.2-1.35L143.67,73.36a9.05,9.05,0,0,0-5-.6,65.48,65.48,0,0,0-13.81,4.37"/><path class="cls-1" d="M102.15,96.8,58.4,159.35a4,4,0,0,0-.66,1.62,1.5,1.5,0,0,0,1,1.83,2,2,0,0,0,1.77-.34l53-39a8.92,8.92,0,0,0,3.07-4,71.8,71.8,0,0,0,3.77-15.18"/><path class="cls-1" d="M113.76,74.17,81,4.41A3.89,3.89,0,0,0,79.94,3a1.49,1.49,0,0,0-2.08-.11,2,2,0,0,0-.6,1.72L84.4,71a9.15,9.15,0,0,0,1.94,4.75c1.65,2.1,8.22,7.9,14,12.58"/><path class="cls-1" d="M124.06,102.58l11.5,96.94,5.75,11.08s1.88,3.49-1,3.8H89.34s-3.12-.89-.78-3.85l6.49-9.82,8.89-70.2"/><path class="cls-2" d="M88.18,211.78l-59.37-.26s-4.16,1.31-.68,3.34l60.8,0-.9-1.43Z"/><path class="cls-2" d="M139.59,214.9H207.5s4.74-1.31.77-3.34l-66.39.94-.3,1.46Z"/><path class="cls-2" d="M1.66,225.15s-3.74,1.46,0,3.54l183.61-.36s3.49-1.36,0-3.18Z"/><path class="cls-2" d="M113.81,239.45s-2.56,1.45,0,3.53l125.74-.36s2.38-1.35,0-3.17Z"/></g></g></svg>